/vscmnt/brussel_pixiu_data/_data_brussel/112/vsc11236/PredSimResults/SUBJ04opt3D/worker_12.mot
version=1
nRows=5
nColumns=50
inDegrees=yes
endheader
                time	         pelvis_tilt	         pelvis_list	     pelvis_rotation	           pelvis_tx	           pelvis_ty	           pelvis_tz	       hip_flexion_r	     hip_adduction_r	      hip_rotation_r	        knee_angle_r	       ankle_angle_r	         mtp_angle_r	       hip_flexion_l	     hip_adduction_l	      hip_rotation_l	        knee_angle_l	       ankle_angle_l	         mtp_angle_l	    lumbar_extension	      lumbar_bending	     lumbar_rotation	 ercspn_r/activation	 intobl_r/activation	 extobl_r/activation	    abd_r/activation	    add_r/activation	hamstrings_r/activation	bifemsh_r/activation	glut_max_r/activation	iliopsoas_r/activation	rect_fem_r/activation	  vasti_r/activation	gastroc_r/activation	 soleus_r/activation	tib_ant_r/activation	 ercspn_l/activation	 intobl_l/activation	 extobl_l/activation	    abd_l/activation	    add_l/activation	hamstrings_l/activation	bifemsh_l/activation	glut_max_l/activation	iliopsoas_l/activation	rect_fem_l/activation	  vasti_l/activation	gastroc_l/activation	 soleus_l/activation	tib_ant_l/activation	
          1.00000001	         -5.57167855	         -6.00389524	         -7.38479925	          1.70000002	          0.84306450	         -0.00441996	        -12.59281131	          0.06987912	        -25.22827385	        -20.71436688	          6.32011162	         35.92350068	         45.90690026	         -7.60752533	          0.54044462	        -35.02528430	          8.69610032	          0.68848979	        -10.91370760	          8.72488251	         15.51592917	          0.23048935	          0.01000000	          0.00999999	          0.03049017	          0.04213988	          0.09932454	          0.00999999	          0.05418709	          0.00999999	          0.46125087	          0.09546883	          0.44648048	          0.11813331	          0.01112609	          0.05764203	          0.11999533	          0.01396245	          0.00999999	          0.14879325	          0.17959594	          0.16425069	          0.13388174	          0.07540311	          0.04800454	          0.09715782	          0.11753671	          0.07488792	          0.47416536	
          1.02000001	         -6.14739415	         -5.46138300	         -7.22050905	          1.74536321	          0.83949786	         -0.00497068	        -15.38709711	         -0.56881923	        -25.51303601	        -18.66391671	          1.03839769	         39.16466387	         44.71792356	         -6.37712417	          1.37897364	        -37.36015129	          8.61813684	          0.51848539	         -8.80579826	          7.41033416	         16.17380509	          0.19421050	          0.00999999	          0.00999999	          0.02286763	          0.03160491	          0.07449341	          0.01000000	          0.04064032	          0.01000000	          0.34593815	          0.07160162	          0.33486036	          0.08859999	          0.00999999	          0.04323153	          0.08999650	          0.01047183	          0.12578754	          0.11902213	          0.13658107	          0.12318801	          0.27428543	          0.05655233	          0.03600340	          0.23332208	          0.08815253	          0.05616594	          0.52799338	
          1.04000001	         -6.74873111	         -4.92103502	         -7.08122270	          1.79080538	          0.83747913	         -0.00582810	        -17.69138658	         -1.34640831	        -25.69515271	        -17.16456337	         -4.77754681	         40.87824293	         43.62006120	         -5.26339695	          1.93157897	        -39.93503543	          9.00632232	          0.46510201	         -6.63227867	          6.16721333	         16.76921345	          0.26431052	          0.00999999	          0.00999999	          0.01715072	          0.02370368	          0.05587007	          0.16525994	          0.03048024	          0.17778091	          0.35816919	          0.05370122	          0.25114527	          0.06644999	          0.00999999	          0.06282360	          0.06749737	          0.00999999	          0.29475873	          0.20239006	          0.10243580	          0.09239101	          0.27940744	          0.04241425	          0.02700255	          0.51260489	          0.06611440	          0.16460231	          0.39599503	
          1.06000001	         -7.38175289	         -4.44503613	         -6.89343682	          1.83470658	          0.83908268	         -0.00681240	        -18.96781779	         -2.32300727	        -25.97367437	        -17.01803469	        -10.50870621	         39.53735758	         42.20613527	         -4.41469965	          1.98129222	        -42.05427318	         11.45013989	          1.97555161	         -4.58383089	          5.05161724	         17.22305297	          0.30978380	          0.00999999	          0.00999999	          0.01286304	          0.01777776	          0.04190255	          0.12394495	          0.02286018	          0.16673509	          0.37297518	          0.04027591	          0.18835895	          0.04983749	          0.00999999	          0.04711774	          0.05062303	          0.00999999	          0.41222317	          0.20967548	          0.12514611	          0.06929326	          0.20955559	          0.03181069	          0.02025191	          0.71532185	          0.14302065	          0.32716458	          0.29699627	
          1.08000001	         -8.06619539	         -4.15137281	         -6.67346255	          1.87641106	          0.84566188	         -0.00784600	        -19.10270981	         -3.37813696	        -26.21540838	        -17.88962973	        -16.83378095	         35.61169257	         39.82025735	         -3.79231065	          2.00342035	        -41.99952995	         12.99175597	          4.67379235	         -2.72494228	          4.21812682	         17.52217116	          0.30328474	          0.00999999	          0.00999999	          0.00999999	          0.01333332	          0.03142692	          0.09295872	          0.01714513	          0.12505132	          0.40909426	          0.03989344	          0.14126921	          0.03737812	          0.00999999	          0.03533830	          0.03796727	          0.00999999	          0.40263822	          0.25933687	          0.12837248	          0.05196994	          0.23230131	          0.02385801	          0.01518894	          0.53649138	          0.22413010	          0.43127925	          0.22274720	
